<svg width="604" height="125" xmlns="http://www.w3.org/2000/svg">
  <defs>
    <!-- Background Tone -->
    <linearGradient id="cardGrad" x1="0%" y1="0%" x2="100%" y2="100%">
      <stop offset="0%" style="stop-color:#e8e4d8;stop-opacity:1" />
      <stop offset="100%" style="stop-color:#d4cfc3;stop-opacity:1" />
    </linearGradient>
  </defs>
  
  <!-- Card background -->
  <rect width="604" height="125" fill="url(#cardGrad)"/>
  <rect width="135" height="125" fill="#d4cfc3" />

  <!-- Icon -->
  <g transform="translate(10,5)">

    <svg
    width="113.64381"
    height="111.89397"
    viewBox="0 0 113.64381 111.89397"
    version="1.1"
    id="svg1"
    xmlns="http://www.w3.org/2000/svg"
    xmlns:svg="http://www.w3.org/2000/svg">
    <defs
    id="defs1" />
    <g
    id="layer1"
    transform="translate(-199.1781,-139.83804)">
    <circle
     style="fill:#c8b768;fill-opacity:1;stroke-width:0.252909"
     id="path1-0"
     r="52.720421"
     cy="195.78502"
     cx="256" />
    <circle
     style="fill:#e0d8a3;fill-opacity:1;stroke-width:0.227093"
     id="path1"
     cx="256"
     cy="195.78502"
     r="47.338917" />
    <circle
     style="display:inline;opacity:1;fill:#dcc77d;fill-opacity:1;stroke-width:0.194562"
     id="path1-8"
     cx="256"
     cy="195.78502"
     r="40.55772" />
    <path
     style="display:inline;opacity:1;fill:#e2d68d;fill-opacity:1;stroke:none;stroke-width:25;stroke-linecap:butt;stroke-linejoin:miter;stroke-dasharray:none;stroke-opacity:1;paint-order:normal"
     id="path34"
     d="M -229.83804,225.12373 -305.36219,29.391096 c -3.46839,-8.988859 3.1655,-18.659162 12.80029,-18.659163 l 139.84713,-1.1e-5 c 9.63479,-1e-6 16.26868,9.670301 12.80029,18.659159 l -75.52415,195.732649 c -2.541,6.58539 -11.85842,6.58539 -14.39941,0 z m -31.43866,18.98675 -191.80751,-85.00024 c -8.8086,-3.90356 -10.95568,-15.43236 -4.14285,-22.24519 l 98.88684,-98.886861 c 6.81283,-6.812828 18.34163,-4.665757 22.2452,4.142842 l 85.00024,191.807519 c 2.85982,6.45333 -3.72859,13.04174 -10.18192,10.18193 z m -8.80483,35.65614 -195.73263,75.52415 c -8.98886,3.46839 -18.65917,-3.1655 -18.65917,-12.80029 l -1e-5,-139.84713 c 0,-9.63479 9.6703,-16.26868 18.65916,-12.80029 l 195.73265,75.52415 c 6.58539,2.541 6.58539,11.85842 0,14.39941 z m 18.98675,31.43866 -85.00024,191.80751 c -3.90356,8.8086 -15.43236,10.95568 -22.24519,4.14285 l -98.88686,-98.88684 c -6.81283,-6.81283 -4.66576,-18.34163 4.14284,-22.2452 l 191.80752,-85.00024 c 6.45333,-2.85982 13.04174,3.72859 10.18193,10.18192 z m 35.65614,8.80483 75.52415,195.73263 c 3.46839,8.98886 -3.1655,18.65917 -12.80029,18.65917 l -139.84713,10e-6 c -9.63479,0 -16.26868,-9.6703 -12.80029,-18.65916 l 75.52415,-195.73265 c 2.541,-6.58539 11.85842,-6.58539 14.39941,0 z m 31.43866,-18.98675 191.8075129,85.00024 c 8.8086001,3.90356 10.9556721,15.43236 4.1428441,22.24519 l -98.886842,98.88686 c -6.812827,6.81283 -18.341625,4.66576 -22.245195,-4.14284 L -194.1819,311.20529 c -2.85982,-6.45333 3.72859,-13.04174 10.18192,-10.18193 z m 8.80483,-35.65614 195.732634,-75.52415 c 8.988859,-3.46839 18.659162,3.1655 18.659163,12.80029 l 1.1e-5,139.84713 c 10e-7,9.63479 -9.670301,16.26868 -18.659159,12.80029 L -175.19515,279.76663 c -6.58539,-2.541 -6.58539,-11.85842 0,-14.39941 z m -18.98675,-31.43866 85.00024,-191.807513 c 3.90356,-8.8086 15.432363,-10.955672 22.245192,-4.142844 l 98.886859,98.886837 c 6.812828,6.81283 4.665757,18.34163 -4.1428423,22.2452 L -183.99997,244.11048 c -6.45333,2.85982 -13.04174,-3.72859 -10.18193,-10.18192 z"
     transform="matrix(0.14570609,0,0,0.14448567,288.43976,156.49407)" />
    <ellipse
     style="display:inline;fill:none;fill-opacity:1;stroke:#dcc77d;stroke-width:4.96463;stroke-linecap:butt;stroke-linejoin:miter;stroke-dasharray:none;stroke-opacity:1;paint-order:normal"
     id="path1-8-9"
     cx="256"
     cy="195.78502"
     rx="40.551296"
     ry="39.506798" />
    </g>
    </svg>
    
  </g>
  
  <!-- Text - larger and more prominent -->
  <text x="150" y="80" 
        font-family="system-ui, -apple-system, 'Segoe UI', Arial, sans-serif" 
        font-size="52" 
        fill="#4a4a42" 
        font-weight="700"
        letter-spacing="-1.5">
    LemonEngine
  </text>
</svg>